<?xml version="1.0" standalone="no"?>
<!DOCTYPE svg PUBLIC "-//W3C//DTD SVG 20010904//EN"
 "http://www.w3.org/TR/2001/REC-SVG-20010904/DTD/svg10.dtd">
<svg version="1.0" xmlns="http://www.w3.org/2000/svg"
 width="2367.000000pt" height="2367.000000pt" viewBox="0 0 2367.000000 2367.000000"
 preserveAspectRatio="xMidYMid meet">
<metadata>
Created by potrace 1.14, written by Peter Selinger 2001-2017
</metadata>
<g transform="translate(0.000000,2367.000000) scale(0.100000,-0.100000)"
fill="#000000" stroke="none">
<path d="M1060 15009 c0 -4 -8 -6 -17 -5 -10 2 -31 -1 -48 -6 -16 -6 -36 -10
-42 -11 -7 0 -13 -4 -13 -9 0 -6 -5 -8 -12 -6 -7 3 -20 -3 -30 -11 -10 -9 -22
-16 -26 -16 -11 0 -76 -28 -82 -35 -3 -4 -23 -19 -45 -33 -22 -15 -36 -27 -31
-27 5 0 -7 -10 -25 -23 -40 -27 -89 -74 -89 -86 0 -4 -11 -17 -25 -29 -14 -13
-23 -26 -20 -31 2 -5 -1 -11 -9 -14 -16 -6 -106 -129 -106 -145 0 -6 -5 -12
-11 -14 -5 -2 -11 -10 -12 -18 -1 -8 -10 -26 -20 -40 -9 -13 -17 -30 -17 -37
0 -7 -4 -13 -10 -13 -5 0 -10 -9 -10 -20 0 -11 -4 -20 -8 -20 -6 0 -30 -47
-36 -70 -3 -14 -29 -77 -37 -93 -25 -46 -110 -325 -139 -457 -28 -123 -27
-119 -46 -230 -9 -52 -18 -102 -19 -111 -2 -9 -6 -40 -10 -69 -4 -29 -9 -62
-11 -74 -2 -12 -6 -50 -9 -86 -3 -36 -7 -79 -9 -97 -20 -154 -29 -837 -13
-1030 5 -50 10 -125 12 -166 2 -41 6 -90 9 -109 3 -18 8 -60 10 -93 2 -33 7
-67 10 -75 3 -8 8 -44 10 -80 3 -36 7 -74 10 -85 2 -11 7 -45 11 -75 10 -82
18 -129 30 -190 3 -14 8 -45 11 -70 3 -25 12 -71 20 -103 7 -32 13 -61 12 -65
-1 -4 1 -20 5 -37 4 -16 9 -39 11 -50 20 -95 106 -447 117 -475 5 -14 11 -34
13 -45 17 -84 153 -445 217 -576 21 -44 39 -84 39 -88 0 -5 3 -11 7 -13 5 -1
17 -21 28 -43 10 -22 27 -52 37 -67 10 -14 18 -33 18 -42 0 -9 4 -16 10 -16 5
0 19 -17 30 -37 30 -55 44 -78 78 -120 9 -12 30 -39 47 -60 53 -68 208 -218
292 -281 45 -34 84 -62 87 -62 3 0 30 -16 60 -35 30 -19 62 -35 71 -35 8 0 15
-4 15 -9 0 -5 10 -12 23 -16 12 -3 31 -10 42 -15 72 -33 274 -87 352 -94 22
-2 45 -6 50 -9 7 -5 270 -20 318 -19 50 1 239 14 266 18 19 3 61 9 94 13 555
80 1156 345 1665 734 58 45 107 83 110 86 3 4 21 18 42 33 20 15 42 33 50 40
7 7 45 40 83 73 39 32 88 76 110 96 22 20 67 61 100 91 33 29 174 167 313 306
140 138 257 252 262 252 4 0 113 -104 241 -231 205 -202 409 -399 504 -484 17
-15 50 -46 75 -69 181 -165 541 -438 692 -524 18 -11 71 -42 118 -69 203 -117
566 -272 725 -308 11 -3 49 -11 85 -20 60 -14 118 -26 195 -40 17 -3 46 -8 65
-11 40 -8 49 -9 190 -19 228 -17 532 5 675 51 28 8 57 17 65 19 55 12 269 107
303 134 9 8 17 11 17 7 0 -4 6 -2 13 4 6 5 39 28 72 49 33 22 91 69 130 105
38 36 73 66 77 66 4 0 8 3 8 8 0 4 19 28 42 53 24 24 59 65 78 89 19 25 38 47
42 48 4 2 8 10 8 18 0 8 7 17 15 20 8 4 15 10 15 15 0 5 24 46 53 92 88 135
116 185 110 191 -4 3 -1 6 5 6 7 0 12 4 12 9 0 5 12 35 27 67 15 33 27 61 28
64 1 3 16 35 33 71 17 36 43 99 57 140 14 41 30 83 35 94 4 11 20 56 35 100
14 44 29 87 32 95 3 8 7 20 8 25 2 6 12 42 25 80 12 39 24 81 26 94 3 14 7 28
10 33 3 4 7 16 9 25 2 10 13 56 25 103 12 47 23 93 25 103 2 9 10 43 18 75 8
31 25 109 37 172 12 63 24 122 27 130 3 8 7 26 8 40 2 14 6 41 10 60 4 19 8
49 10 65 2 17 7 41 10 55 3 14 8 48 11 75 4 28 9 54 11 58 5 8 15 95 17 150 0
15 3 27 6 27 3 0 5 15 6 33 1 32 11 136 20 212 3 22 7 67 10 100 2 33 6 85 8
115 17 206 20 325 20 635 -1 193 -4 393 -8 445 -11 155 -15 194 -20 220 -3 14
-7 48 -10 75 -5 46 -21 160 -31 228 -3 15 -9 36 -14 46 -6 10 -8 21 -5 24 7 7
-33 181 -58 248 -5 14 -10 35 -11 47 -1 12 -5 22 -9 22 -4 0 -8 10 -8 23 0 13
-3 27 -7 31 -4 3 -8 13 -10 21 -6 30 -10 41 -28 80 -10 22 -19 42 -20 45 -16
47 -57 134 -71 150 -7 8 -13 18 -14 22 -7 33 -13 48 -20 48 -4 0 -15 16 -26
35 -10 19 -22 35 -27 35 -4 0 -6 4 -3 8 3 5 -6 20 -20 35 -14 15 -22 27 -18
27 4 0 -7 14 -25 30 -17 17 -31 34 -31 39 0 5 -9 13 -20 16 -11 4 -18 11 -15
16 4 5 -1 9 -10 9 -9 0 -13 5 -10 10 3 6 -1 10 -9 10 -9 0 -16 8 -16 17 0 9
-3 13 -7 10 -3 -4 -12 2 -20 13 -8 11 -19 20 -25 20 -6 0 -25 11 -42 24 -17
13 -41 26 -53 30 -13 4 -23 11 -23 15 0 7 -72 36 -79 32 -2 -2 -7 2 -10 7 -3
6 -19 13 -36 16 -16 3 -46 9 -65 14 -20 5 -43 8 -53 6 -9 -1 -19 1 -21 4 -5 8
-131 6 -201 -3 -63 -8 -143 -28 -215 -53 -8 -3 -18 -6 -22 -7 -5 -2 -10 -4
-13 -5 -3 -1 -9 -4 -15 -5 -5 -1 -13 -4 -17 -5 -5 -1 -11 -2 -15 -1 -5 0 -8
-3 -8 -7 0 -9 -70 -37 -83 -34 -4 1 -7 -2 -7 -8 0 -5 -7 -10 -16 -10 -8 0 -22
-7 -31 -15 -8 -8 -19 -13 -24 -10 -5 4 -9 3 -9 -2 0 -4 -19 -17 -43 -28 -79
-37 -410 -243 -432 -268 -11 -13 -23 -21 -155 -112 -78 -54 -318 -232 -330
-245 -3 -3 -30 -23 -60 -45 -30 -22 -62 -47 -71 -57 -9 -10 -21 -18 -27 -18
-6 0 -12 -3 -14 -8 -1 -4 -23 -23 -48 -42 -25 -19 -47 -37 -50 -40 -3 -3 -59
-48 -125 -101 -66 -54 -131 -107 -145 -119 -14 -12 -40 -34 -59 -48 -19 -15
-43 -36 -55 -48 -12 -11 -86 -75 -166 -142 -80 -66 -158 -133 -175 -147 -82
-72 -176 -157 -244 -221 -42 -39 -96 -88 -121 -110 -136 -119 -554 -534 -870
-864 -107 -112 -234 -244 -282 -294 l-88 -91 -101 105 c-342 355 -932 936
-1133 1115 -44 39 -104 94 -135 124 -31 29 -94 88 -140 130 -46 42 -91 83
-100 91 -9 9 -61 56 -115 105 -55 50 -111 101 -125 114 -14 13 -48 42 -75 65
-26 22 -62 55 -80 71 -17 17 -52 48 -77 70 -25 22 -81 72 -124 111 -44 40
-105 93 -135 118 -30 26 -62 53 -70 60 -8 7 -44 37 -80 67 -35 29 -72 60 -80
69 -9 8 -34 29 -55 45 -21 17 -43 35 -49 40 -6 6 -27 23 -46 38 -19 15 -46 36
-60 47 -14 11 -83 64 -155 117 -71 54 -132 100 -135 103 -3 4 -61 44 -130 91
-69 46 -127 86 -130 89 -3 3 -25 16 -50 29 -25 13 -52 30 -60 36 -19 16 -224
115 -237 115 -6 0 -32 9 -59 19 -115 45 -167 55 -296 56 -71 1 -128 -2 -128
-6z m1030 -1841 c14 -3 35 -10 48 -17 12 -6 22 -9 22 -7 0 6 70 -18 115 -38
17 -8 55 -24 85 -37 30 -13 106 -52 169 -86 63 -35 118 -63 123 -63 4 0 8 -4
8 -8 0 -5 12 -14 28 -21 42 -19 222 -142 222 -152 0 -5 5 -9 11 -9 9 0 70 -45
115 -85 7 -5 31 -26 55 -45 24 -19 66 -55 94 -80 28 -25 77 -67 109 -95 165
-140 616 -591 831 -830 15 -16 70 -75 121 -130 51 -55 103 -112 116 -126 71
-80 186 -204 202 -220 19 -18 17 -20 -56 -96 -40 -43 -101 -107 -133 -143 -94
-102 -445 -451 -500 -497 -28 -23 -61 -51 -75 -63 -14 -12 -41 -34 -60 -49
-19 -14 -37 -28 -40 -31 -10 -10 -106 -86 -145 -115 -22 -16 -42 -32 -45 -35
-3 -3 -30 -21 -60 -40 -30 -19 -57 -37 -60 -40 -10 -11 -167 -97 -250 -137
-134 -65 -370 -144 -467 -157 -21 -3 -58 -8 -83 -12 -59 -9 -307 -8 -345 0
-16 4 -43 9 -59 12 -16 2 -60 13 -98 25 -320 95 -585 346 -763 722 -44 93
-102 241 -121 307 -41 145 -51 184 -73 285 -6 28 -13 61 -16 75 -3 14 -7 41
-10 60 -3 19 -7 44 -9 55 -5 27 -17 113 -21 150 -1 17 -6 68 -11 115 -10 102
-11 390 -1 515 7 94 21 194 36 258 5 20 7 37 4 37 -3 0 -1 6 5 13 6 6 10 15
10 20 0 40 40 184 75 267 6 14 11 27 12 30 5 21 77 150 122 219 55 85 142 177
191 202 15 8 48 26 74 41 25 14 49 24 52 21 3 -4 6 -1 6 5 0 7 3 11 8 10 4 -1
18 3 32 9 14 6 34 13 45 15 24 6 319 2 355 -4z m6686 -16 c12 -6 36 -13 53
-14 17 -1 31 -5 31 -8 0 -3 17 -12 38 -19 20 -8 39 -17 42 -20 3 -3 24 -19 48
-34 23 -15 42 -32 42 -39 0 -6 3 -9 6 -6 3 4 22 -12 42 -35 20 -23 40 -44 43
-47 15 -13 90 -131 117 -186 29 -58 88 -220 97 -265 2 -11 6 -28 9 -37 3 -9 8
-32 11 -51 3 -19 8 -37 10 -41 2 -4 7 -29 10 -56 3 -27 7 -62 9 -79 16 -130
20 -207 20 -390 0 -227 -7 -337 -29 -485 -9 -52 -16 -102 -16 -110 -1 -8 -6
-37 -11 -65 -5 -27 -11 -61 -14 -75 -10 -55 -16 -77 -55 -225 -16 -60 -34
-119 -39 -130 -5 -11 -19 -47 -30 -80 -12 -33 -25 -69 -30 -80 -22 -52 -123
-253 -140 -280 -11 -16 -23 -37 -27 -45 -10 -20 -34 -53 -107 -148 -151 -198
-347 -341 -551 -401 -180 -52 -278 -63 -450 -48 -181 16 -382 76 -569 169 -86
43 -105 55 -240 144 -49 32 -96 64 -105 69 -9 6 -18 12 -21 15 -3 3 -39 32
-80 65 -41 33 -86 69 -100 80 -14 11 -108 101 -209 200 -221 217 -158 154
-459 460 l-254 257 24 26 c12 14 28 31 33 38 15 17 175 192 214 233 18 20 73
79 121 131 82 89 190 202 336 352 203 208 410 400 629 583 77 64 149 124 160
134 11 9 43 32 70 51 28 19 52 37 55 41 3 3 22 15 43 28 21 13 43 29 51 36 38
38 479 285 510 285 2 0 25 10 52 22 27 12 51 23 54 23 3 0 39 11 80 24 41 13
84 25 95 27 11 2 38 6 60 10 22 3 42 8 44 9 9 9 259 -3 277 -13z"/>
<path d="M11984 13557 l-34 -29 0 -1675 0 -1674 33 -32 32 -33 138 1 c88 1
137 -3 137 -10 0 -6 3 -6 8 1 4 6 24 11 44 11 26 0 46 8 70 29 l34 29 -1 1298
c0 714 3 1305 6 1315 4 11 9 3 13 -25 4 -24 8 -46 8 -50 0 -5 3 -12 8 -18 4
-5 11 -27 14 -49 4 -21 8 -41 11 -45 2 -4 6 -18 9 -32 9 -42 14 -62 31 -129 9
-36 19 -76 22 -89 2 -14 6 -29 9 -33 6 -9 13 -45 17 -83 1 -11 5 -22 8 -25 6
-5 26 -79 33 -125 2 -11 4 -20 5 -20 2 0 4 -7 6 -15 2 -8 11 -44 20 -80 22
-88 22 -88 35 -145 6 -27 16 -62 22 -76 5 -15 11 -37 13 -50 2 -13 6 -33 9
-44 2 -11 14 -58 26 -105 12 -47 24 -92 25 -100 2 -8 4 -15 5 -15 1 0 3 -9 5
-20 2 -11 23 -92 45 -180 23 -88 43 -164 44 -170 2 -5 6 -28 11 -50 4 -22 12
-46 18 -53 5 -7 7 -15 4 -18 -3 -3 1 -29 10 -57 8 -28 16 -58 18 -66 2 -9 15
-63 30 -121 15 -58 28 -112 30 -120 2 -8 9 -35 16 -60 7 -25 13 -49 14 -55 0
-5 4 -15 8 -22 4 -6 4 -18 1 -27 -4 -9 -1 -16 6 -16 6 0 10 -6 7 -12 -2 -7 0
-24 5 -38 9 -24 13 -37 23 -85 10 -42 16 -70 19 -80 2 -5 6 -22 10 -37 4 -15
13 -28 19 -30 10 -3 512 -2 527 1 3 0 7 9 8 19 2 21 7 42 15 62 3 8 13 44 21
80 9 36 18 70 20 75 1 6 6 27 11 48 4 20 11 39 15 42 4 2 6 16 5 30 -2 14 0
25 5 25 5 0 7 8 5 18 -1 9 1 22 5 27 4 6 11 28 15 50 5 22 10 46 12 53 1 6 5
20 7 30 3 9 5 18 6 20 6 6 24 96 22 105 -1 4 2 7 7 7 5 0 8 8 7 18 -2 9 0 26
5 37 19 49 22 61 20 69 -1 5 1 16 5 25 9 21 9 19 18 69 4 23 11 42 14 42 4 0
8 12 9 28 3 44 8 67 14 72 6 5 29 100 32 135 1 11 4 22 8 25 3 3 13 37 22 75
16 63 21 83 32 135 2 8 4 15 6 15 1 0 3 9 5 20 1 11 17 72 34 135 17 63 33
124 34 135 2 11 4 20 5 20 2 0 4 9 6 21 3 11 12 47 20 80 23 86 26 97 29 119
2 11 5 21 6 23 1 1 4 7 5 12 1 6 3 11 5 13 2 3 6 21 15 66 3 19 8 38 11 43 3
5 7 18 10 31 6 32 11 53 33 135 10 39 17 72 14 72 -3 0 -1 6 5 13 6 7 13 26
16 42 2 17 5 30 6 30 1 0 3 7 5 15 2 8 13 56 26 105 12 50 23 100 23 113 0 35
16 26 17 -10 1 -81 1 -954 -1 -963 -1 -5 -2 -14 0 -20 1 -5 1 -374 2 -819 l0
-808 31 -32 32 -31 186 1 187 0 30 34 31 33 0 1670 0 1669 -32 33 -32 32 -348
0 -349 0 -8 -23 c-5 -13 -11 -34 -12 -46 -2 -13 -7 -29 -11 -35 -5 -7 -6 -13
-3 -13 2 0 0 -15 -5 -32 -6 -18 -12 -41 -15 -50 -7 -31 -22 -91 -29 -118 -2
-8 -4 -15 -5 -15 -1 0 -4 -13 -6 -30 -3 -16 -7 -37 -11 -45 -8 -18 -7 -15 -18
-65 -10 -47 -12 -54 -15 -57 -2 -3 -6 -18 -14 -56 -3 -13 -9 -33 -13 -45 -4
-12 -8 -29 -8 -37 -1 -8 -4 -22 -8 -30 -7 -18 -41 -163 -40 -170 1 -3 -3 -11
-9 -17 -6 -7 -8 -13 -5 -13 3 0 1 -15 -4 -32 -6 -18 -12 -40 -14 -48 -2 -8
-11 -44 -20 -80 -8 -36 -18 -73 -20 -83 -2 -10 -7 -28 -11 -40 -4 -12 -9 -29
-10 -37 -2 -13 -10 -43 -30 -120 -2 -8 -8 -33 -14 -55 -6 -22 -12 -49 -14 -60
-2 -11 -5 -20 -6 -20 -1 0 -4 -9 -5 -20 -2 -11 -13 -54 -24 -95 -25 -86 -29
-104 -37 -144 -2 -16 -7 -33 -10 -38 -6 -9 -13 -45 -17 -83 -1 -11 -5 -22 -8
-25 -7 -6 -64 -242 -61 -252 1 -5 -3 -8 -10 -8 -6 0 -9 -3 -6 -6 4 -3 -2 -35
-12 -72 -10 -36 -17 -70 -14 -73 2 -4 -1 -11 -7 -14 -5 -4 -8 -13 -5 -21 3 -8
1 -14 -4 -14 -6 0 -9 -3 -8 -7 2 -9 -15 -94 -22 -108 -1 -3 -3 -8 -4 -12 -1
-5 -8 -31 -15 -59 -7 -29 -14 -60 -16 -70 -2 -11 -4 -21 -6 -24 -1 -3 -3 -9
-4 -15 -2 -5 -4 -12 -5 -15 -1 -3 -3 -13 -6 -22 -2 -10 -6 -26 -8 -35 -3 -10
-5 -22 -5 -26 -2 -16 -20 4 -19 21 1 9 -11 67 -26 127 -15 61 -29 117 -31 125
-2 8 -15 60 -30 115 -14 55 -28 109 -30 120 -3 11 -23 94 -46 185 -23 91 -42
171 -42 178 0 6 -5 12 -10 12 -6 0 -8 2 -5 6 3 3 2 22 -3 42 -6 20 -12 48 -15
62 -3 14 -14 59 -26 100 -24 91 -31 120 -32 143 0 9 -5 17 -10 17 -5 0 -7 3
-3 6 3 3 2 17 -4 31 -5 13 -11 36 -14 51 -3 15 -23 97 -45 182 -23 85 -43 164
-44 175 -2 11 -4 20 -6 20 -1 0 -3 9 -5 20 -4 25 -4 23 -60 245 -27 102 -49
194 -51 205 -2 11 -10 45 -19 75 -17 58 -22 80 -30 120 -3 14 -19 77 -35 140
-34 128 -41 157 -43 183 -1 9 -6 18 -12 19 -5 1 -165 2 -354 3 l-344 2 -33
-30z"/>
<path d="M21000 13558 c-19 -17 -30 -39 -31 -56 -4 -241 -3 -332 6 -332 7 0 7
-3 0 -8 -6 -4 -10 -122 -10 -317 0 -195 4 -313 10 -317 7 -5 7 -8 0 -8 -6 0
-10 -112 -10 -315 0 -203 4 -315 10 -315 7 0 7 -3 0 -8 -6 -4 -10 -122 -10
-317 0 -195 4 -313 10 -317 7 -5 7 -8 0 -8 -6 0 -10 -111 -10 -312 0 -197 4
-316 10 -320 7 -5 7 -8 0 -8 -8 0 -11 -206 -6 -407 1 -12 14 -34 31 -49 l29
-28 186 -1 186 0 32 33 32 33 0 757 0 757 525 0 524 1 33 30 33 31 0 166 0
166 -30 33 c-25 27 -37 33 -76 33 -25 1 -48 -3 -50 -7 -3 -5 -11 -5 -17 -1
-19 12 -731 10 -739 -2 -5 -7 -8 -7 -8 0 0 7 -34 11 -90 10 -50 0 -94 2 -98 5
-12 8 -9 959 3 963 5 2 259 3 564 3 l553 -1 37 31 36 32 0 170 -1 171 -28 28
-28 28 -789 1 -789 1 -30 -29z"/>
<path d="M23212 13560 c-15 -15 -29 -33 -31 -41 -9 -31 -5 -159 4 -159 5 0 4
-4 -4 -9 -9 -6 -10 -11 -2 -15 8 -5 8 -13 1 -26 -6 -12 -7 -28 0 -44 6 -17 6
-27 -1 -32 -7 -4 -7 -10 0 -18 6 -7 8 -16 4 -19 -9 -10 -10 -278 0 -284 4 -2
2 -13 -3 -23 -12 -22 -10 -42 5 -52 6 -5 6 -8 -1 -8 -11 0 -11 -46 0 -57 3 -4
1 -12 -5 -19 -7 -8 -7 -14 1 -19 6 -3 7 -11 3 -18 -9 -15 -10 -278 0 -284 4
-2 2 -13 -3 -23 -12 -22 -10 -42 5 -52 6 -5 6 -8 -1 -8 -11 0 -11 -40 0 -59 4
-5 2 -13 -4 -16 -8 -5 -8 -11 -1 -19 6 -7 8 -16 4 -19 -9 -10 -10 -278 0 -284
4 -2 2 -13 -3 -23 -12 -22 -10 -42 5 -52 6 -5 6 -8 -1 -8 -11 0 -11 -40 0 -59
4 -5 2 -13 -4 -16 -8 -5 -8 -11 -1 -19 6 -7 8 -16 4 -19 -9 -10 -10 -278 0
-284 4 -2 2 -13 -3 -23 -12 -22 -10 -42 5 -52 6 -5 6 -8 -1 -8 -11 0 -11 -40
0 -59 4 -5 2 -13 -4 -16 -8 -5 -8 -11 -1 -19 6 -7 8 -16 4 -19 -9 -10 -10
-278 0 -284 4 -2 2 -13 -3 -23 -12 -22 -10 -42 5 -52 6 -5 6 -8 -1 -8 -11 0
-11 -40 0 -59 4 -5 2 -13 -4 -16 -8 -5 -8 -11 -1 -19 6 -7 8 -16 4 -19 -9 -10
-10 -278 0 -284 4 -2 2 -13 -3 -23 -12 -22 -10 -42 5 -52 6 -5 6 -8 -1 -8 -11
0 -11 -40 0 -59 4 -5 2 -13 -4 -16 -8 -5 -8 -11 -1 -19 6 -7 8 -16 4 -20 -4
-3 -7 -37 -7 -74 -1 -62 1 -69 29 -97 l31 -30 186 0 187 1 31 29 30 29 0 1677
0 1677 -30 29 -30 28 -185 1 -185 1 -28 -27z"/>
<path d="M17735 13381 c-45 -28 -48 -46 -48 -296 0 -130 3 -238 6 -241 3 -3 2
-16 -2 -28 -4 -11 -6 -37 -4 -58 l3 -36 -144 0 -145 0 -29 -30 -28 -29 -1
-149 c0 -149 0 -150 27 -182 l28 -33 139 -1 c77 0 146 -4 154 -9 8 -5 10 -9 4
-9 -10 0 -12 -386 -2 -396 3 -3 3 -12 0 -20 -10 -27 -8 -314 2 -318 7 -3 7 -5
0 -5 -11 -1 -12 -607 -2 -617 3 -3 3 -12 0 -20 -10 -27 -8 -314 2 -314 7 0 7
-3 0 -8 -9 -6 -11 -35 -5 -52 1 -3 3 -30 4 -60 2 -30 4 -57 6 -60 1 -3 2 -9 1
-13 -3 -16 52 -143 67 -154 9 -7 13 -13 9 -13 -4 0 8 -14 27 -30 39 -35 122
-74 136 -65 6 3 10 2 10 -3 0 -11 49 -14 310 -16 118 -1 226 2 239 6 13 5 33
21 45 35 19 25 21 40 21 175 l1 148 -31 30 -30 29 -158 3 c-144 3 -160 5 -173
23 -8 11 -12 25 -10 32 3 7 1 13 -5 13 -6 0 -7 6 -3 12 12 19 12 48 1 48 -6 0
-6 5 0 13 11 14 11 27 0 45 -5 6 -4 12 0 12 5 0 9 9 9 20 0 11 -4 20 -9 20 -4
0 -5 5 -2 11 11 17 13 59 3 59 -5 0 -7 4 -3 9 10 17 12 71 2 71 -6 0 -5 5 2
13 8 10 7 17 -1 25 -8 8 -8 12 -1 12 13 0 12 32 -1 42 -6 4 -5 12 2 20 6 8 7
19 2 28 -4 7 -5 23 0 35 5 12 4 28 0 35 -5 8 -5 21 -1 29 9 19 8 32 -2 49 -5
7 -4 12 2 12 7 0 7 8 1 25 -6 16 -6 26 1 31 6 4 6 11 -2 20 -6 8 -8 14 -3 14
5 0 9 18 9 40 0 22 -4 40 -9 40 -5 0 -3 7 4 15 10 12 10 18 0 30 -7 8 -8 15
-3 15 5 0 9 9 9 20 0 11 -4 20 -9 20 -4 0 -5 6 -1 12 12 19 12 48 1 48 -5 0
-5 5 1 13 6 7 7 18 2 27 -4 7 -4 24 1 37 6 16 5 23 -4 23 -9 0 -9 2 0 8 8 5 9
13 3 22 -5 8 -5 21 -2 29 9 20 9 42 -1 59 -5 6 -5 12 0 12 4 0 8 23 8 50 0 28
-4 50 -9 50 -5 0 -4 6 3 13 8 10 7 17 -1 25 -8 8 -8 12 -1 12 13 0 12 32 -1
42 -6 4 -5 12 2 20 6 8 7 19 2 28 -4 7 -5 23 0 35 5 12 4 28 0 35 -5 8 -4 22
1 32 6 10 7 23 3 29 -9 15 -9 89 0 116 7 22 10 22 178 22 l170 -1 31 31 31 31
0 157 c-1 113 -4 158 -13 161 -7 2 -21 13 -31 24 -17 19 -31 20 -182 20 -90 0
-170 1 -178 4 -12 3 -15 25 -14 117 0 62 3 117 7 123 3 6 3 14 0 18 -11 10
-10 76 1 76 6 0 5 5 -1 11 -7 7 -8 20 -3 34 4 12 5 27 1 33 -9 14 -7 164 2
179 4 6 -10 25 -30 44 l-37 33 -168 0 c-130 1 -175 -2 -193 -13z"/>
<path d="M16148 12784 c-2 -1 -16 -5 -33 -8 -68 -12 -89 -18 -151 -42 -35 -15
-64 -31 -64 -37 0 -6 -3 -8 -6 -4 -15 14 -214 -155 -214 -181 0 -5 -7 -13 -16
-16 -9 -4 -14 -9 -11 -12 3 -4 -2 -15 -12 -25 -10 -11 -31 -45 -47 -77 -16
-31 -31 -59 -34 -62 -6 -6 -27 -59 -48 -125 -9 -27 -19 -52 -22 -55 -3 -3 -6
-10 -7 -16 -1 -6 -4 -23 -7 -38 -2 -14 -7 -29 -9 -33 -5 -8 -18 -77 -20 -100
0 -7 -3 -13 -7 -13 -4 0 -7 -12 -8 -27 0 -16 -1 -30 -2 -33 -1 -3 -3 -21 -5
-40 -2 -19 -7 -51 -10 -70 -15 -74 -28 -550 -15 -550 3 0 5 -21 5 -48 1 -52
12 -178 21 -229 3 -18 7 -45 8 -60 2 -16 5 -28 6 -28 1 0 3 -9 5 -20 19 -104
30 -145 39 -145 5 0 7 -3 3 -6 -11 -11 75 -231 96 -245 5 -3 9 -10 10 -15 1
-17 39 -74 48 -74 5 0 8 -3 7 -8 -3 -8 9 -24 65 -82 21 -22 42 -40 48 -40 6 0
7 -4 4 -10 -3 -5 1 -10 9 -10 9 0 16 -5 16 -12 0 -6 3 -9 6 -6 3 3 17 -5 31
-18 14 -13 29 -21 34 -18 5 3 9 1 9 -3 0 -5 15 -15 33 -22 32 -14 39 -16 67
-22 8 -2 17 -7 20 -11 3 -4 19 -9 35 -12 17 -2 30 -5 30 -6 0 -13 309 -19 363
-7 17 4 47 10 65 13 17 3 39 10 48 15 9 4 19 5 23 2 3 -3 6 -2 6 4 0 5 6 10
13 10 24 0 104 42 166 88 58 43 150 132 151 146 0 3 11 19 24 34 14 16 23 32
20 37 -3 4 -1 8 4 8 11 0 76 140 88 193 2 9 6 26 9 38 2 11 6 28 9 37 13 45
18 88 23 225 3 81 2 148 -3 148 -5 1 -94 2 -199 3 l-190 1 -27 -30 c-16 -16
-28 -36 -28 -45 -2 -82 -9 -190 -14 -209 -6 -28 -25 -90 -33 -111 -4 -8 -7
-18 -7 -21 -1 -8 -47 -67 -76 -98 -42 -44 -126 -74 -215 -76 -70 -2 -142 17
-195 50 -59 37 -130 138 -130 185 0 11 -5 20 -11 20 -6 0 -9 6 -6 14 3 8 3 17
-1 20 -3 4 -7 12 -8 19 -1 7 -5 29 -9 51 -4 21 -9 48 -11 60 -3 11 -7 56 -9
98 -2 42 -5 80 -7 85 -2 4 -3 62 -3 128 l0 120 574 0 573 0 29 35 c28 33 29
39 26 110 -2 42 -7 81 -11 88 -4 7 -3 12 3 12 10 0 10 18 -1 35 -4 6 -3 17 2
24 4 8 4 26 0 41 -4 15 -4 33 0 41 5 7 6 17 3 22 -3 5 -7 39 -9 76 -8 131 -25
276 -34 301 -1 3 -2 8 -1 12 0 4 -11 47 -25 95 -14 48 -27 93 -28 98 -4 17
-58 130 -65 135 -3 3 -13 18 -21 34 -33 65 -205 216 -245 216 -8 0 -19 8 -24
18 -6 9 -11 14 -11 9 0 -4 -16 -1 -35 7 -19 8 -35 13 -35 11 0 -2 -16 3 -35
11 -19 8 -35 11 -35 8 0 -4 -6 -2 -12 3 -7 5 -25 9 -40 8 -16 0 -28 2 -28 5 0
5 -247 10 -252 4z m188 -427 c42 -10 91 -35 121 -63 34 -32 93 -140 93 -171 0
-11 3 -23 7 -27 7 -7 10 -17 18 -86 11 -85 15 -135 18 -202 l3 -68 -45 -1
c-207 -2 -655 2 -659 6 -3 3 -4 27 -3 53 7 100 9 127 11 127 1 0 3 9 4 20 14
109 56 251 80 267 6 4 7 8 3 8 -5 0 -2 6 5 14 7 7 20 23 28 35 8 11 20 21 28
21 7 0 11 4 8 8 -9 14 78 53 134 60 19 2 36 5 38 6 3 4 82 -2 108 -7z"/>
<path d="M19588 12785 c-2 -2 -33 -5 -70 -9 -36 -3 -72 -8 -80 -11 -7 -2 -25
-7 -41 -9 -15 -3 -41 -11 -57 -20 -17 -8 -28 -11 -25 -6 5 7 -49 -18 -140 -67
-12 -7 -49 -39 -81 -72 -69 -69 -84 -86 -84 -101 0 -5 -4 -10 -9 -10 -8 0 -24
-37 -22 -52 1 -5 -4 -8 -11 -8 -6 0 -9 -3 -5 -6 3 -3 -4 -27 -15 -52 -11 -26
-21 -56 -23 -67 -15 -89 -19 -128 -20 -177 0 -32 -3 -58 -7 -58 -4 0 -6 -9 -5
-20 1 -11 4 -20 7 -20 3 0 5 -21 4 -47 l-1 -48 151 3 c83 1 156 3 161 4 6 0
19 -2 31 -6 16 -5 30 2 58 28 33 31 37 41 38 88 1 30 -1 58 -4 64 -4 5 -3 16
3 24 5 8 9 27 9 43 0 15 4 27 10 27 5 0 7 6 4 14 -3 8 0 25 6 38 30 58 87 95
160 105 55 7 191 9 195 3 2 -4 18 -5 34 -4 17 1 31 -2 31 -7 0 -5 3 -8 8 -7
13 3 56 -14 82 -34 64 -47 89 -134 89 -305 0 -139 -9 -174 -47 -200 -23 -15
-144 -71 -177 -82 -29 -10 -62 -22 -80 -31 -11 -5 -58 -24 -105 -41 -47 -18
-88 -36 -91 -41 -3 -6 -9 -9 -13 -8 -7 2 -50 -13 -96 -33 -14 -6 -27 -11 -30
-12 -3 -1 -18 -7 -35 -14 -16 -7 -30 -11 -31 -9 0 2 -8 -3 -17 -11 -10 -7 -17
-11 -17 -7 0 3 -17 -4 -37 -16 -21 -11 -55 -29 -75 -40 -47 -25 -178 -145
-178 -164 0 -8 -4 -14 -8 -14 -11 0 -65 -102 -82 -155 -7 -22 -12 -40 -10 -40
2 0 -2 -10 -8 -21 -6 -12 -14 -44 -17 -72 -6 -67 -8 -76 -20 -84 -7 -5 -6 -8
1 -8 11 0 11 -71 -1 -90 -6 -9 -4 -11 6 -5 11 7 12 6 2 -7 -7 -8 -10 -18 -6
-22 4 -4 8 -28 9 -54 1 -26 5 -69 9 -97 4 -27 8 -59 9 -70 1 -11 5 -26 9 -32
5 -7 6 -13 3 -13 -2 0 6 -29 19 -65 13 -36 21 -65 17 -65 -4 0 1 -5 11 -11 9
-6 15 -14 12 -20 -4 -5 -1 -9 4 -9 6 0 11 -5 11 -11 0 -35 155 -189 190 -189
5 0 10 -4 10 -10 0 -5 8 -10 18 -10 10 0 22 -4 28 -10 5 -5 19 -11 31 -13 13
-2 26 -6 29 -10 4 -4 18 -7 31 -7 13 0 23 -3 23 -8 0 -4 12 -8 28 -8 52 -2
145 -14 150 -19 3 -3 11 0 19 6 10 9 13 8 13 0 0 -7 5 -9 10 -6 6 4 37 8 70
10 33 2 70 10 82 16 13 7 24 12 26 11 2 -2 6 -2 27 2 17 3 89 40 108 55 9 8
17 11 17 7 0 -4 7 -1 15 6 33 30 45 38 55 38 5 0 10 7 10 15 0 8 5 15 11 15
12 0 109 100 109 113 0 5 4 6 9 2 6 -3 8 -14 6 -25 -2 -11 0 -20 4 -20 5 0 15
-15 22 -32 26 -62 115 -137 168 -141 12 -1 21 -4 21 -7 0 -9 227 -20 245 -11
5 3 21 6 35 7 49 5 95 16 105 25 6 6 10 73 11 157 l0 147 -32 33 c-28 28 -39
32 -76 31 -72 -3 -84 0 -95 24 -8 16 -11 292 -11 863 -1 461 -4 850 -7 864 -3
14 -8 36 -11 50 -12 53 -16 65 -57 150 -34 71 -35 73 -92 133 -56 58 -104 97
-121 97 -8 0 -14 4 -14 8 0 5 -18 15 -40 22 -22 7 -40 17 -40 22 0 4 -13 8
-29 8 -17 0 -32 4 -35 9 -10 15 -158 35 -278 36 -65 1 -119 1 -120 0z m354
-1667 c0 -176 -4 -300 -11 -328 -7 -25 -13 -50 -14 -57 -2 -7 -6 -16 -10 -19
-4 -4 -7 -16 -7 -26 0 -10 -4 -18 -10 -18 -5 0 -10 -6 -10 -13 0 -29 -100
-118 -167 -149 -59 -28 -77 -32 -154 -32 -57 0 -93 5 -103 13 -9 8 -16 10 -16
7 0 -4 -18 3 -39 15 -42 23 -83 86 -97 149 -13 57 -12 241 2 293 7 26 10 47 7
47 -3 0 0 7 7 15 7 8 9 15 4 15 -5 0 -4 4 1 8 6 4 17 20 25 36 19 38 78 98
110 113 37 17 160 72 200 90 66 29 245 113 260 122 8 5 17 7 19 5 2 -2 4 -131
3 -286z"/>
</g>
</svg>
